<svg aria-hidden="true" style="position:absolute;width:0;height:0" xmlns="http://www.w3.org/2000/svg" overflow="hidden"><defs><symbol id="icon-menu-burger" viewBox="0 0 48 32"><path d="M0 5.334V0h48v5.334H0zm0 13.332h48v-5.332H0v5.332zM0 32h48v-5.334H0V32z"/></symbol><symbol id="icon-icon-send" viewBox="0 0 32 32"><path fill="var()" d="M32 0L0 18l10.227 3.787L26 7 14.003 23.187l.009.003-.012-.003V32l5.735-6.691L27.002 28l4.999-28z"/></symbol><symbol id="icon-email-black-18dp-1" viewBox="0 0 32 32"><path d="M26.667 5.333H5.334A2.662 2.662 0 002.682 8l-.014 16c0 1.467 1.2 2.667 2.667 2.667h21.333c1.467 0 2.667-1.2 2.667-2.667V8c0-1.467-1.2-2.667-2.667-2.667zm-.534 5.668l-9.426 5.892a1.343 1.343 0 01-1.421-.004l.006.003L5.866 11A1.133 1.133 0 117.07 9.083l-.004-.003 8.933 5.586 8.933-5.588a1.132 1.132 0 111.204 1.916l-.005.003z"/></symbol><symbol id="icon-phone-black-18dp-1" viewBox="0 0 32 32"><path d="M24.882 19.774l-3.268-.373a2.552 2.552 0 00-2.11.732l-2.368 2.368c-3.669-1.894-6.585-4.81-8.427-8.372l-.051-.108 2.382-2.377a2.552 2.552 0 00.731-2.122l.001.012-.373-3.243a2.578 2.578 0 00-2.557-2.276H6.613c-1.454 0-2.663 1.209-2.574 2.661.683 10.987 9.47 19.762 20.444 20.444 1.452.089 2.663-1.12 2.663-2.574V22.32v-.012a2.549 2.549 0 00-2.253-2.532l-.012-.001z"/></symbol><symbol id="icon-person-black-18dp-1" viewBox="0 0 32 32"><path d="M16 16a5.333 5.333 0 100-10.666A5.333 5.333 0 1016 16zm0 2.667c-3.561 0-10.667 1.787-10.667 5.333v1.333c0 .732.599 1.333 1.333 1.333h18.667c.732 0 1.333-.601 1.333-1.333V24c0-3.547-7.108-5.333-10.667-5.333z"/></symbol><symbol id="icon-close" viewBox="0 0 32 32"><path d="M32 3.223L28.777 0 16 12.777 3.223 0 0 3.223 12.777 16 0 28.777 3.223 32 16 19.223 28.777 32 32 28.777 19.223 16 32 3.223z"/></symbol><symbol id="icon-envelope" viewBox="0 0 43 32"><path fill="var()" d="M38.667 0H4C1.795 0 0 1.675 0 3.733v22.405c0 2.059 1.795 3.733 4 3.733h34.667c2.205 0 4-1.675 4-3.733V3.733c0-2.059-1.795-3.733-4-3.733zm0 2.488c.181 0 .355.037.512.099L21.334 17.024 3.489 2.587c.152-.062.327-.098.512-.099h34.667zm0 24.893H4c-.736 0-1.333-.557-1.333-1.243V5.215L20.459 19.61c.235.189.537.304.866.304h.017c.329 0 .631-.115.869-.306l-.003.002L40 5.215v20.923c0 .685-.597 1.243-1.333 1.243z"/></symbol><symbol id="icon-facebook-1" viewBox="0 0 32 32"><path fill="var()" d="M21.328 5.312h2.923V.224A36.478 36.478 0 0020.144 0h-.157.008c-4.213 0-7.099 2.65-7.099 7.52V12H8.25v5.688h4.646V32h5.698V17.69h4.461l.707-5.688h-5.168V8.08c0-1.643.443-2.768 2.734-2.768z"/></symbol><symbol id="icon-instagram-2" viewBox="0 0 32 32"><path fill="var()" d="M31.968 9.408c-.074-1.701-.349-2.869-.742-3.882a7.839 7.839 0 00-1.85-2.837l-.001-.001A7.906 7.906 0 0026.597.861l-.054-.018C25.524.449 24.362.176 22.661.101 20.949.019 20.405 0 16.059 0c-4.344 0-4.888.019-6.595.094-1.699.074-2.869.349-3.88.742a7.847 7.847 0 00-2.839 1.85l-.001.001A7.9 7.9 0 00.919 5.465l-.018.054C.506 6.538.232 7.7.157 9.401c-.082 1.712-.101 2.256-.101 6.602 0 4.344.019 4.888.094 6.595.075 1.701.35 2.869.744 3.882a7.915 7.915 0 001.849 2.837l.001.001c.8.813 1.77 1.443 2.832 1.843 1.019.395 2.182.67 3.882.744 1.707.075 2.251.094 6.595.094 4.346 0 4.89-.019 6.595-.094 1.701-.074 2.869-.349 3.882-.742a8.237 8.237 0 004.664-4.628l.019-.055c.394-1.019.669-2.182.744-3.882.075-1.707.093-2.251.093-6.595s-.006-4.888-.08-6.595zm-2.88 13.066c-.07 1.563-.333 2.406-.55 2.97a5.341 5.341 0 01-3.004 3.024l-.036.012c-.56.219-1.411.482-2.968.55-1.688.075-2.194.094-6.464.094-4.269 0-4.782-.019-6.464-.094-1.563-.069-2.406-.331-2.97-.55a4.953 4.953 0 01-1.836-1.192l-.001-.001a4.978 4.978 0 01-1.184-1.803L3.6 25.45c-.218-.563-.48-1.413-.549-2.97-.075-1.688-.094-2.195-.094-6.464 0-4.27.019-4.784.094-6.464.069-1.563.331-2.406.549-2.97a4.897 4.897 0 011.198-1.837l.002-.002a4.972 4.972 0 011.806-1.182l.034-.011c.56-.219 1.411-.48 2.968-.55 1.688-.074 2.195-.093 6.464-.093 4.275 0 4.782.019 6.464.093 1.563.069 2.406.331 2.97.55a4.91 4.91 0 011.837 1.194c.531.52.938 1.144 1.195 1.84.218.56.48 1.411.549 2.968.075 1.688.094 2.194.094 6.464 0 4.269-.019 4.768-.094 6.458z"/><path fill="var()" d="M16.059 7.782a8.223 8.223 0 00-8.219 8.221 8.223 8.223 0 0016.442.008v-.009a8.223 8.223 0 00-8.221-8.221zm0 13.552a5.333 5.333 0 01.001-10.666h.001a5.334 5.334 0 110 10.668zM26.525 7.458a1.92 1.92 0 01-3.84 0 1.92 1.92 0 013.84 0z"/></symbol><symbol id="icon-linkedin-1" viewBox="0 0 32 32"><path fill="var()" d="M31.992 32H32V20.262c0-5.741-1.235-10.163-7.947-10.163-3.227 0-5.392 1.77-6.277 3.45h-.093v-2.914h-6.365v21.363h6.627V21.42c0-2.786.528-5.48 3.978-5.48 3.398 0 3.45 3.179 3.45 5.658V32h6.619zM.528 10.635h6.635V32H.528V10.635zM3.843 0A3.843 3.843 0 000 3.843c0 2.12 1.722 3.878 3.843 3.878 2.12 0 3.842-1.757 3.842-3.878S5.965.002 3.844 0z"/></symbol><symbol id="icon-logo-1" viewBox="0 0 29 32"><path fill="var()" d="M3.84 0l4.677 4.428h13.046v12.351l4.677 4.428V.001H3.84z"/><path fill="var()" d="M0 4.241v20.6h21.76v-8.188L8.655 4.246 0 4.241zm17.615 17.587H3.443V7.973h1.002V20.89h13.17v.938zM6.266 28.662l.524-1.078h.438l-.764 1.437v.838h-.397v-.838l-.764-1.437h.439l.524 1.078zm2.247.667h-.881l-.184.53h-.411l.859-2.275h.355l.861 2.275h-.413l-.186-.53zm-.77-.319h.659l-.33-.944-.33.944zm2.328.234c0-.105.029-.202.086-.289.058-.089.17-.193.339-.314a1.498 1.498 0 01-.182-.276l-.004-.008a.568.568 0 01-.052-.226c0-.179.054-.319.163-.422s.254-.156.437-.156a.57.57 0 01.406.147c.106.097.16.218.16.361v.003a.497.497 0 01-.074.262l.001-.002a.858.858 0 01-.233.236l-.003.002-.155.113.44.518a.914.914 0 00.095-.417h.33c0 .28-.065.509-.196.689l.334.396h-.44l-.128-.152a.93.93 0 01-.558.183h-.025.001c-.225 0-.405-.06-.54-.179a.597.597 0 01-.202-.447v-.021.001zm.753.343a.58.58 0 00.359-.128l-.497-.586-.049.035c-.125.095-.188.203-.188.325 0 .105.034.191.102.256a.375.375 0 00.254.099h.019-.001zm-.21-1.466c0 .088.054.197.161.33l.173-.118.049-.039a.283.283 0 00.097-.212v-.009-.002a.2.2 0 00-.067-.149.233.233 0 00-.162-.064h-.019a.224.224 0 00-.167.075.276.276 0 00-.066.179v.01zm4.134.997c-.023.243-.113.432-.269.568s-.364.204-.623.204a.902.902 0 01-.48-.128.86.86 0 01-.317-.362l-.002-.005a1.302 1.302 0 01-.117-.544v-.22c0-.214.038-.403.114-.567a.871.871 0 01.326-.378.913.913 0 01.494-.133c.251 0 .453.068.606.205s.243.329.268.578h-.394c-.019-.163-.067-.281-.144-.353-.076-.073-.188-.109-.336-.109a.464.464 0 00-.397.189c-.092.125-.138.309-.141.552v.202c0 .246.044.433.132.563s.218.194.387.194c.155 0 .272-.035.35-.105s.128-.186.148-.348h.394zm2.17-.338c0 .223-.038.419-.115.588a.88.88 0 01-.332.388.905.905 0 01-.494.134.92.92 0 01-.493-.134.897.897 0 01-.332-.38l-.002-.006a1.335 1.335 0 01-.119-.555v-.023.001-.128c0-.222.038-.418.117-.588s.19-.3.333-.389c.144-.091.308-.136.493-.136s.35.045.493.134c.143.089.255.217.333.384s.118.362.118.584v.126zm-.396-.118c0-.252-.048-.445-.143-.58a.465.465 0 00-.384-.202l-.022.001h.001-.016a.468.468 0 00-.384.2l-.001.002c-.096.133-.145.323-.147.567v.131c0 .25.049.444.146.58s.233.205.406.205c.175 0 .31-.067.403-.2.095-.133.142-.328.142-.584v-.118z"/></symbol><symbol id="icon-logo-2" viewBox="0 0 25 32"><path fill="var()" d="M10.447 1.806h.084c.156 0 .324.015.49.03a13.96 13.96 0 012.18.329V.403a12.432 12.432 0 00-2.207-.357l-.042-.002c-.254-.02-.571-.035-.889-.043H9.779c-1.523.006-3.04.201-4.515.582a18.28 18.28 0 00-4.79 1.948v17.475a18.922 18.922 0 014.431-1.75l.135-.029a19.11 19.11 0 013.78-.586l.052-.002h.052c.216-.011.433-.017.655-.018V15.83c-1.78.024-3.493.264-5.129.695l.147-.033c-.603.157-1.185.326-1.731.513l-.623.212V3.591l.266-.128c1.89-.918 4.096-1.513 6.424-1.649l.047-.002.028-.001.029.001h-.001c.248-.012.497-.018.742-.018h.28c.129.003.258.006.388.014z"/><path fill="var()" d="M14.838 3.651h-.016c-.915 0-1.811-.077-2.684-.225l.094.013c-.277-.047-.55-.103-.814-.164V20.55c1.12.277 2.271.412 3.425.404a18.432 18.432 0 004.643-.61l-.128.029a18.299 18.299 0 004.877-1.995l-.085.047V1.262a19.021 19.021 0 01-4.429 1.751l-.136.03a19.338 19.338 0 01-4.746.609zm6.907.299l.623-.209v13.63l-.266.129c-.903.443-1.963.834-3.065 1.118l-.119.026a16.52 16.52 0 01-4.074.527c-.411 0-.818-.017-1.214-.052l-.426-.038V5.064l.497.033c.361.023.735.034 1.141.034a21.134 21.134 0 005.32-.696l-.147.033a25.26 25.26 0 001.924-.576l-.193.058zM1.684 25.977a.916.916 0 00-.661-.281l-.033.001h.002-.014c-.139 0-.272.028-.393.078l.007-.003a.904.904 0 00-.51.512l-.002.006a1.002 1.002 0 00-.072.386v2.335c-.006.164.026.328.092.479a.83.83 0 00.554.479c.114.031.231.048.349.048a.985.985 0 00.968-.982v-.261h-.61v.221a.53.53 0 01-.038.199l.001-.004a.38.38 0 01-.089.132.426.426 0 01-.255.089.308.308 0 01-.286-.125l-.001-.001a.548.548 0 01-.082-.289l.001-.024v.001-2.177a.74.74 0 01.075-.349.31.31 0 01.262-.143l.038.002H.986h.012c.107 0 .201.052.26.131l.001.001a.494.494 0 01.102.301v.013-.001.202h.604v-.238-.011c0-.143-.027-.28-.077-.405l.003.007a.955.955 0 00-.205-.329zm3.626-.026a1.083 1.083 0 00-.694-.257 1.08 1.08 0 00-.364.066.963.963 0 00-.556.511l-.002.006a1.08 1.08 0 00-.089.452v2.239c-.004.158.026.314.089.458a.903.903 0 00.237.314.97.97 0 00.322.197 1.047 1.047 0 001.06-.198l-.001.001a.955.955 0 00.231-.314c.063-.144.093-.301.089-.458v-2.239-.021c0-.156-.033-.304-.092-.438l.003.007a1.016 1.016 0 00-.23-.327zm-.285 3.018l.001.034a.4.4 0 01-.123.29c-.077.065-.177.104-.287.104s-.21-.039-.288-.105l.001.001a.398.398 0 01-.121-.325v.002-2.239l-.001-.034a.4.4 0 01.123-.289c.077-.065.177-.104.287-.104s.21.039.288.105l-.001-.001a.398.398 0 01.121.325v-.002 2.24zm5.047 1v-4.24h-.586l-.77 2.244h-.011l-.777-2.244h-.581v4.239h.606V27.39h.011l.593 1.823h.302l.598-1.823h.011v2.578h.605zm3.441-3.942a.834.834 0 00-.342-.232 1.31 1.31 0 00-.416-.066h-.024.001-.9v4.24h.604v-1.656h.311a1.1 1.1 0 00.545-.116.88.88 0 00.329-.32l.002-.004a1 1 0 00.138-.369c.021-.133.033-.287.033-.444v-.04.002a2.426 2.426 0 00-.059-.606.906.906 0 00-.223-.39zm-.312 1.292a.538.538 0 01-.057.224l.001-.003a.342.342 0 01-.154.147l-.002.001a.617.617 0 01-.254.054l-.033-.001h.002-.275V26.3h.311l.029-.001c.088 0 .172.02.247.055l-.004-.002a.35.35 0 01.141.154l.001.002a.62.62 0 01.053.236v.282c0 .098.006.201 0 .291h-.006zm3.173-1.59h-.495l-.934 4.24h.604l.177-.911h.823l.178.911h.604l-.958-4.24zm-.557 2.752l.297-1.537h.011l.295 1.537h-.604zm4.46-.198h-.011l-.913-2.554h-.58v4.24h.604v-2.55h.012l.923 2.549h.569v-4.239h-.604v2.554zm3.691-2.554l-.486 1.686h-.012l-.486-1.686h-.639l.83 2.448v1.791h.604v-1.791l.83-2.447h-.64zM0 31.166h.291v.817h.198v-.817h.289v-.167H0v.168zm2.447-.168l-.382.985h.21l.081-.224h.392l.084.224h.215l-.391-.985h-.21zm-.03.595l.134-.365.134.365h-.268zm2.449.027h.228v.127a.378.378 0 01-.234.083h-.014a.25.25 0 01-.195-.094.406.406 0 01-.073-.234l.001-.023v.001c0-.219.095-.329.283-.329l.021-.001c.097 0 .178.067.201.157v.001l.194-.038c-.042-.192-.18-.289-.417-.289h-.013a.492.492 0 00-.331.127.48.48 0 00-.141.38v-.002.023c0 .132.048.254.127.347l-.001-.001c.087.09.209.146.343.146L4.877 32h-.001.016c.155 0 .296-.06.402-.157v-.388h-.426v.166zm2.471-.622h-.198v.985h.689v-.167h-.49v-.817zm2.089 0h-.199v.985h.199v-.985zm2.042.657l-.403-.657h-.193v.985h.185v-.643l.396.643h.198v-.985h-.182v.658zm1.847-.106h.49v-.167h-.49v-.215h.527v-.168h-.727v.985h.747v-.167h-.548v-.266zm4.477-.163h-.388v-.388h-.198v.984h.198v-.431h.388v.431h.198v-.985h-.197v.388zm1.857.163h.492v-.167h-.492v-.215h.529v-.168h-.726v.985h.746v-.167h-.548v-.266zm2.519.001c.172-.027.258-.118.258-.274a.23.23 0 00-.095-.219h-.001a.555.555 0 00-.25-.059l-.04.001h.002-.417v.985h.197v-.412h.055c.039 0 .076.008.109.023l-.002-.001a.201.201 0 01.07.072l.215.313h.236l-.119-.192a.697.697 0 00-.216-.235l-.002-.002zm-.199-.137h-.146v-.247h.156a.538.538 0 01.204.024l-.004-.001a.128.128 0 01.028.158v-.001a.128.128 0 01-.037.043.561.561 0 01-.162.024l-.04-.001h.002zm2.099.136h.49v-.167h-.49v-.215h.529v-.168h-.728v.985h.747v-.167h-.548v-.266z"/></symbol><symbol id="icon-logo-3" viewBox="0 0 31 32"><path fill="var()" d="M6.492 26.224c.02 0 .037.009.05.021l.129.136c-.1.109-.224.197-.363.257a1.29 1.29 0 01-.514.092h-.026c-.165 0-.323-.032-.467-.089l.009.003a1.055 1.055 0 01-.598-.611l-.002-.007a1.325 1.325 0 01-.082-.464v-.018-.018c0-.167.032-.326.091-.472l-.003.009c.056-.139.142-.267.251-.375.11-.107.242-.189.387-.245.159-.059.328-.088.499-.086.158-.004.316.023.463.078.127.053.245.125.347.216l-.109.144a.096.096 0 01-.027.026.071.071 0 01-.038.012h-.006a.098.098 0 01-.047-.016l-.058-.038-.081-.05a.861.861 0 00-.249-.085l-.005-.001a.97.97 0 00-.176-.015H5.85h.001-.013a.979.979 0 00-.352.066l.007-.002a.807.807 0 00-.281.182.842.842 0 00-.182.289 1.059 1.059 0 00-.067.381c-.002.132.021.264.066.388.039.106.1.204.179.287a.743.743 0 00.268.179.875.875 0 00.333.061c.066.001.132-.003.197-.013a.75.75 0 00.426-.198.096.096 0 01.061-.025zm3.727-.68a1.29 1.29 0 01-.087.479 1.04 1.04 0 01-.243.371 1.108 1.108 0 01-.374.241l-.008.003a1.459 1.459 0 01-.992-.003l.01.003a1.107 1.107 0 01-.379-.245 1.11 1.11 0 01-.243-.367l-.003-.007a1.36 1.36 0 01.003-.967l-.003.009c.055-.14.138-.268.245-.376.106-.1.232-.18.372-.233l.008-.003a1.404 1.404 0 01.991.003l-.01-.003a1.077 1.077 0 01.624.615c.06.154.09.317.088.481zm-.339 0v-.02c0-.13-.023-.255-.064-.372l.002.008a.765.765 0 00-.44-.467l-.005-.002a1.044 1.044 0 00-.721.002l.007-.002a.758.758 0 00-.445.463l-.002.005a1.233 1.233 0 000 .769.759.759 0 00.442.466l.005.002c.23.082.483.082.713 0a.765.765 0 00.273-.18.838.838 0 00.173-.287c.044-.124.064-.254.062-.385zm2.882.403l.034.086.037-.086c.015-.034.029-.062.044-.089l-.002.004.824-1.428c.016-.025.031-.04.047-.045s.036-.008.056-.008h.012-.001.243v2.323h-.289v-1.779l-.001-.04.001-.042v.002l-.829 1.449a.127.127 0 01-.048.052h-.001a.132.132 0 01-.069.019h-.048c-.025.001-.05-.006-.071-.019s-.038-.031-.049-.052v-.001l-.853-1.458V26.7h-.279v-2.318h.255c.02 0 .039.003.057.008h-.001c.02.009.036.025.045.044v.001l.843 1.43a.587.587 0 01.041.079l.001.003zm3.104-.115v.87h-.322v-2.319h.747c.133 0 .262.018.384.053l-.01-.002a.78.78 0 01.284.144.587.587 0 01.161.228.778.778 0 01.055.297.724.724 0 01-.06.297.636.636 0 01-.173.231l-.001.001a.793.793 0 01-.28.152l-.006.001a1.274 1.274 0 01-.389.054l-.39-.006zm0-.25h.39a.844.844 0 00.25-.035.524.524 0 00.181-.101l-.001.001a.418.418 0 00.109-.15l.001-.003a.467.467 0 00.039-.19v-.006l.001-.023a.431.431 0 00-.034-.168l.001.003a.435.435 0 00-.113-.158.644.644 0 00-.436-.125h.002-.39v.956zm4.338 1.123h-.26a.112.112 0 01-.067-.022.146.146 0 01-.042-.053v-.001l-.22-.561h-1.102l-.228.561a.13.13 0 01-.04.052.11.11 0 01-.069.023h-.259l.968-2.323h.336l.981 2.323zm-1.598-.863h.91l-.384-.946a1.471 1.471 0 01-.07-.207l-.003-.011-.038.122a1.248 1.248 0 01-.038.106l.003-.008-.381.944zm2.993-1.45a.166.166 0 01.049.042l1.412 1.751v-1.803h.289v2.323h-.165a.149.149 0 01-.063-.014h.001a.177.177 0 01-.051-.043l-1.41-1.749V26.706h-.289v-2.324h.171c.02 0 .04.003.058.011zm4.128 1.389v.922h-.323v-.922l-.892-1.399h.295a.11.11 0 01.063.02.196.196 0 01.043.052v.001l.558.902a.94.94 0 01.096.199l.002.007.042-.1a.888.888 0 01.055-.106l.55-.909a.222.222 0 01.042-.049.102.102 0 01.064-.023h.297l-.894 1.405zm-13.124-5.298c.141.017.282.031.426.043 2.177-.929 4.02-2.447 5.296-4.367s1.931-4.156 1.88-6.429l-2.4-2.286c.159.754.25 1.62.25 2.507 0 1.699-.334 3.32-.94 4.801l.031-.085a13.344 13.344 0 01-4.544 5.816z"/><path fill="var()" d="M11.746 20.376l.065.013c2.192-1.495 3.864-3.581 4.799-5.99.529-1.319.835-2.847.835-4.447a12.29 12.29 0 00-.411-3.161l.019.086-3.418-3.256c1.07 2.02 1.698 4.416 1.698 6.959 0 .592-.034 1.175-.1 1.749l.007-.07c-.334 2.967-1.545 5.781-3.493 8.118zm11.593-7.961c-.581 2.497-1.991 4.749-4.022 6.421-.56.467-1.185.899-1.847 1.273l-.063.033a11.447 11.447 0 004.456-2.404l-.013.011a10.766 10.766 0 002.85-3.945l.026-.071-1.387-1.32z"/><path fill="var()" d="M22.795 12.047l-1.974-1.88a11.55 11.55 0 01-1.88 6.112l.027-.044a12.367 12.367 0 01-4.831 4.331h.01c.442 0 .885-.025 1.325-.075a12.21 12.21 0 004.764-3.33l.012-.014a11.3 11.3 0 002.534-5.024l.014-.075zM12.032 2.246L9.677 0C7.572.775 5.762 2.137 4.483 3.909S2.516 7.779 2.51 9.928c.008 2.376.847 4.681 2.385 6.551s3.686 3.198 6.106 3.774c2.16-2.507 3.424-5.604 3.61-8.843s-.718-6.448-2.579-9.165zm16.203 9.455c-.008-2.819-1.187-5.52-3.28-7.512s-4.927-3.117-7.885-3.125a11.543 11.543 0 00-3.998.709l14.417 13.735a9.919 9.919 0 00.745-3.805v-.001z"/></symbol><symbol id="icon-logo-4" viewBox="0 0 53 32"><path d="M10.291 8.05h-.001c-1.419 0-2.57 1.122-2.57 2.505v.002c0 1.383 1.151 2.505 2.57 2.505h.002c1.419 0 2.57-1.122 2.57-2.505v-.002c0-1.383-1.151-2.504-2.57-2.504zm18.971-.8a7.17 7.17 0 00-2.184-5.122 7.559 7.559 0 00-10.511-.001 7.174 7.174 0 00-2.184 5.123v10.595S29.26 16.231 29.262 7.252v-.001zM2.51 21.322a4.981 4.981 0 001.518 3.563l.001.001a5.241 5.241 0 003.656 1.482 5.244 5.244 0 003.657-1.483l-.001.001a4.983 4.983 0 001.521-3.561v-7.374S2.51 15.077 2.51 21.322zm5.176 1.321h-.002c-.279 0-.539-.083-.756-.225l.005.003a1.339 1.339 0 01-.496-.584l-.003-.009a1.272 1.272 0 01-.076-.771l-.001.008c.056-.267.187-.498.37-.676.185-.18.422-.308.686-.36l.009-.001c.263-.051.535-.025.783.075s.459.269.609.486a1.298 1.298 0 01.122 1.249l.003-.008a1.33 1.33 0 01-.733.717 1.361 1.361 0 01-.52.101h-.001v-.005zm10.567-.82h-1.059v1.094h-.552v-2.675h1.743v.447h-1.191v.691h1.058v.445zm2.65-.183c0 .264-.046.494-.14.693a1.057 1.057 0 01-.975.621h-.022.001a1.066 1.066 0 01-.995-.609l-.003-.006a1.553 1.553 0 01-.146-.662v-.023.001-.133c0-.264.047-.496.142-.695a1.057 1.057 0 01.998-.623c.223 0 .42.054.594.162.174.107.308.26.402.461.096.2.144.431.144.693v.119zm-.559-.122c0-.28-.05-.494-.151-.64a.49.49 0 00-.409-.219h-.023.001-.021a.493.493 0 00-.407.216l-.001.002c-.1.143-.151.354-.152.632v.131c0 .274.05.486.151.636s.245.226.434.226h.022a.487.487 0 00.404-.215l.001-.002c.099-.146.149-.358.151-.636v-.131zm2.347.697v-.016a.278.278 0 00-.11-.222h-.001c-.073-.056-.206-.115-.397-.177a2.824 2.824 0 01-.47-.191l.016.008c-.304-.164-.456-.385-.456-.663a.65.65 0 01.121-.387.809.809 0 01.351-.267c.153-.063.324-.095.515-.095s.361.035.511.105.265.166.347.292c.083.126.125.27.125.43h-.552a.357.357 0 00-.115-.285.473.473 0 00-.326-.104.501.501 0 00-.314.087.266.266 0 00-.113.218v.007c0 .087.044.159.131.218s.217.114.388.166c.314.094.542.211.686.351s.215.314.215.521c0 .232-.088.414-.263.546s-.411.197-.708.197c-.206 0-.393-.038-.562-.112a.911.911 0 01-.386-.308l-.002-.003a.79.79 0 01-.133-.44v-.016.001h.553c0 .295.176.443.529.443a.514.514 0 00.307-.079.263.263 0 00.111-.214v-.011.001zm2.943-1.527h-.82v2.229h-.552v-2.229h-.809v-.447h2.18v.447zm1.927 1.07h-1.058v.717h1.242v.443h-1.794v-2.675h1.791v.447h-1.239v.637h1.058v.432zm1.498.18h-.439v.979h-.552v-2.675h.995c.316 0 .56.07.732.211s.257.34.257.597c0 .182-.04.335-.119.458a.816.816 0 01-.354.288l-.005.002.579 1.094v.026h-.592l-.502-.979zm-.439-.447h.445a.456.456 0 00.321-.105.38.38 0 00.115-.272l-.001-.021v.001a.396.396 0 00-.109-.297c-.071-.073-.181-.109-.329-.109h-.443v.803zm3.342.483v.943h-.552v-2.675h1.044c.201 0 .378.036.53.11.153.073.27.178.353.314s.124.289.124.462c0 .262-.09.469-.27.621-.179.151-.427.226-.745.226h-.483zm0-.446h.493c.146 0 .257-.035.333-.104.077-.068.116-.166.116-.294v-.019a.437.437 0 00-.117-.299.434.434 0 00-.32-.125h-.505v.841zm3.488.23h-1.059v.717h1.242v.443h-1.794v-2.675h1.791v.447h-1.239v.637h1.059v.432zm2.56-1.07h-.821v2.229h-.552v-2.229h-.809v-.447h2.18v.447zm1.926 1.07h-1.059v.717h1.242v.443h-1.793v-2.675h1.79v.447h-1.239v.637h1.059v.432zm1.498.18h-.439v.979h-.552v-2.675h.995c.316 0 .56.07.732.211s.257.34.257.597c0 .182-.04.335-.119.458a.813.813 0 01-.353.288l-.005.002.579 1.094v.026h-.592l-.502-.979zm-.439-.447h.444a.457.457 0 00.322-.105.38.38 0 00.115-.272l-.001-.021v.001a.396.396 0 00-.109-.297c-.071-.073-.181-.109-.329-.109h-.443v.803zm3.241.724V22.2a.28.28 0 00-.11-.223h-.001a1.45 1.45 0 00-.397-.177 2.86 2.86 0 01-.47-.191l.016.008c-.304-.164-.456-.385-.456-.663 0-.144.04-.274.121-.387s.199-.203.351-.267c.153-.063.324-.095.514-.095.191 0 .361.035.511.105s.265.166.348.292c.083.126.126.27.126.43h-.552a.357.357 0 00-.115-.285.473.473 0 00-.326-.104.5.5 0 00-.314.087.266.266 0 00-.113.218v.007c0 .087.044.159.131.218s.217.114.388.166c.314.094.542.211.686.351s.215.314.215.521c0 .232-.088.414-.263.546s-.411.197-.708.197c-.206 0-.393-.038-.562-.112a.911.911 0 01-.386-.308l-.002-.003a.79.79 0 01-.133-.44v-.016.001h.553c0 .295.176.443.529.443a.514.514 0 00.307-.079.262.262 0 00.11-.214v-.012.001z"/></symbol><symbol id="icon-logo-5" viewBox="0 0 40 32"><path fill="var()" d="M3.056 26.742c.157.194.24.438.236.688l.001.053c0 .324-.141.615-.365.815l-.001.001a1.575 1.575 0 01-1.061.317H.001v-4.361h1.827a1.548 1.548 0 011.017.294l-.004-.003a.994.994 0 01.355.763l-.002.055v-.003c.011.24-.065.477-.212.667a.99.99 0 01-.556.34c.247.046.471.177.63.373zm-2.188-.658h.78a.733.733 0 00.497-.145.516.516 0 00.169-.383l-.002-.045v.002l.001-.037a.535.535 0 00-.167-.389.748.748 0 00-.514-.146h.003-.767v1.144zm1.354 1.672a.542.542 0 00.186-.408l-.001-.036v.002l.001-.032a.552.552 0 00-.189-.416l-.001-.001a.8.8 0 00-.48-.159l-.054.002h.002-.818v1.199h.829a.816.816 0 00.524-.151zm4.567.861l-1.016-1.704h-.382v1.704h-.874v-4.361h1.654a1.624 1.624 0 011.156.373l-.003-.002a1.391 1.391 0 01.12 1.808l.003-.004a1.337 1.337 0 01-.789.443l1.083 1.743H6.79zm-1.397-2.299h.715c.497 0 .745-.22.745-.66l.001-.037a.647.647 0 00-.184-.453.766.766 0 00-.565-.177h.003-.724l.009 1.328zm6.176 1.421H9.826l-.308.878h-.916l1.6-4.313h.991l1.593 4.312h-.916l-.301-.878zm-.233-.66l-.637-1.84-.637 1.84h1.273zm6.215 1.538h-.869l-1.945-2.965v2.965h-.866v-4.361h.866l1.945 2.982v-2.982h.868v4.361zm4.952-1.044c-.182.33-.45.593-.775.764l-.01.005a2.545 2.545 0 01-1.22.274h-1.546v-4.361h1.546l.067-.001c.42 0 .817.1 1.168.277l-.015-.007c.332.168.606.433.785.761.171.333.272.727.272 1.144s-.1.811-.278 1.158l.007-.014zm-.993-.104c.239-.278.384-.642.384-1.041s-.145-.763-.386-1.043l.002.002a1.5 1.5 0 00-1.091-.371h.004-.603v2.823h.603a1.496 1.496 0 001.088-.372l-.002.001zM12.112 0s11.201 4.246 10.962 10.39v10.392S11.881 16.534 12.115 10.39L12.112 0zm20.941 18.349a15.15 15.15 0 017.049-2.628l.068-.006v-3.253c-2.995 1.181-5.437 3.227-7.081 5.827l-.035.06z"/><path fill="var()" d="M31.782 19.329c1.749-3.487 4.693-6.158 8.283-7.513l.105-.035V2.408S24.218 8.456 24.555 17.205v14.796s.711-.27 1.829-.778c0-.473 0-.95.051-1.43a15.39 15.39 0 015.325-10.446l.021-.017z"/><path fill="var()" d="M30.266 24.825a15.3 15.3 0 01.558-3.03 14.243 14.243 0 00-3.378 8.921v.016a43.71 43.71 0 003.286-1.741l-.218.118c-.191-.908-.3-1.952-.3-3.021 0-.445.019-.885.056-1.32l-.004.057zm.634.053a14.803 14.803 0 00.212 3.971l-.015-.092c4.357-2.619 9.255-6.664 9.066-11.553v-.426a14.265 14.265 0 00-8.297 3.894l.005-.005a14.26 14.26 0 00-.968 4.158l-.003.052z"/></symbol><symbol id="icon-logo-6" viewBox="0 0 62 32"><path fill="var()" d="M31.123 14.854a2.248 2.248 0 01-.396-1.437v.007-2.074c0-.637.131-1.12.394-1.45s.715-.495 1.356-.494c.602 0 1.03.141 1.282.422.275.359.41.798.378 1.241v.487h-1.076v-.494l.001-.064c0-.148-.012-.293-.034-.435l.002.016a.482.482 0 00-.153-.287.575.575 0 00-.345-.113l-.048.002h.002a.616.616 0 00-.412.119l.002-.001a.568.568 0 00-.178.313l-.001.004a2.594 2.594 0 00-.042.513v2.518c-.017.243.031.486.138.707a.526.526 0 00.212.171l.003.001a.544.544 0 00.28.04h-.003a.545.545 0 00.382-.115l-.001.001a.522.522 0 00.16-.303v-.003c.026-.167.037-.336.034-.504v-.511h1.076v.466a2.018 2.018 0 01-.376 1.311l.004-.006c-.247.308-.669.462-1.288.462s-1.088-.164-1.354-.506zm4.485.022c-.272-.323-.408-.794-.408-1.416v-2.183c0-.616.136-1.082.408-1.399s.726-.474 1.364-.473c.633 0 1.085.158 1.358.473.271.317.41.783.41 1.399v2.183c0 .616-.139 1.089-.415 1.414s-.726.487-1.353.487c-.626 0-1.09-.164-1.364-.485zm1.865-.524c.097-.202.142-.424.129-.646v-2.672l.002-.072a1.28 1.28 0 00-.133-.569l.003.007a.528.528 0 00-.216-.173l-.003-.001a.533.533 0 00-.287-.037h.003a.546.546 0 00-.289.039l.004-.001a.53.53 0 00-.22.172l-.001.001a1.263 1.263 0 00-.129.633v2.685a1.29 1.29 0 00.129.646.676.676 0 00.223.158l.004.002a.692.692 0 00.558-.002l-.005.002a.672.672 0 00.226-.16v-.013zm2.562-4.884h1.16l.872 4.028.892-4.028h1.128l.113 5.813h-.833l-.089-4.04-.861 4.04h-.669l-.892-4.054-.083 4.054h-.843l.104-5.812zm5.465 0h1.806c1.041 0 1.561.55 1.561 1.651 0 1.054-.548 1.58-1.643 1.579h-.616v2.583h-1.114l.007-5.812zm1.543 2.484a.791.791 0 00.613-.183c.128-.197.184-.427.161-.657l.001-.064c0-.164-.02-.324-.057-.476l.003.014a.425.425 0 00-.083-.161l.001.001a.496.496 0 00-.138-.116l-.002-.001a1.057 1.057 0 00-.501-.092h.003-.433v1.736h.433zm3.431-2.484h1.197l1.229 5.813h-1.039l-.243-1.341H50.55l-.25 1.341h-1.054l1.229-5.812zm1.023 3.799l-.417-2.44-.417 2.44h.834zm2.394-3.799h.781l1.494 3.316V9.468h.925v5.812h-.742l-1.503-3.462v3.462h-.957l.002-5.812zm5.367 3.596l-1.242-3.588h1.046l.758 2.305.711-2.305h1.023l-1.226 3.588v2.216h-1.07v-2.216zm-26.413 4.758v.304h-.91v2.362h-.381v-2.362h-.914v-.304h2.205zm2.852 2.666h-.302a.124.124 0 01-.075-.026.134.134 0 01-.048-.06v-.001l-.263-.633h-1.262l-.263.633a.181.181 0 01-.04.072.124.124 0 01-.076.025h-.301l1.115-2.666h.387l1.128 2.655zm-1.847-.99h1.053l-.445-1.085a1.908 1.908 0 01-.08-.236l-.003-.014-.042.141-.04.111-.442 1.083zm3.769.728c.07.003.139.003.209 0 .061-.006.12-.017.179-.032.064-.015.117-.032.169-.052l-.009.003c.049-.019.098-.042.15-.065v-.6h-.451a.082.082 0 01-.055-.021.059.059 0 01-.022-.047v-.207h.865v1.022a1.598 1.598 0 01-.459.214l-.012.003a1.76 1.76 0 01-.27.055l-.009.001a2.896 2.896 0 01-.321.017h-.017c-.197 0-.386-.037-.56-.103l.011.004a1.355 1.355 0 01-.446-.279l.001.001a1.293 1.293 0 01-.285-.414l-.003-.008a1.415 1.415 0 01-.102-.534v-.02-.018c0-.194.037-.379.104-.549l-.004.01c.064-.158.162-.301.287-.422.127-.12.279-.214.446-.277a1.71 1.71 0 01.598-.099c.104 0 .207.007.31.023a1.4 1.4 0 01.487.173c.069.042.134.088.195.139l-.108.165a.103.103 0 01-.036.036.098.098 0 01-.051.014.134.134 0 01-.069-.021h.001a1.153 1.153 0 01-.114-.066l.005.003a.905.905 0 00-.143-.07l-.007-.002a1.21 1.21 0 00-.197-.058l-.008-.001a1.495 1.495 0 00-.268-.023h-.016.001-.013c-.15 0-.293.027-.425.077l.008-.003a.94.94 0 00-.328.211.924.924 0 00-.207.332 1.338 1.338 0 00.003.898l-.003-.009c.049.125.125.24.223.335a.935.935 0 00.326.211c.142.046.292.064.442.053zm3.553-.042h1.217v.304h-1.59v-2.666h.381l-.009 2.362zm2.484.303h-.381v-2.664h.381v2.666zm1.418-2.653a.21.21 0 01.058.049l1.63 2.01-.002-.048.002-.05v.002-1.986h.333v2.676h-.192l-.013.001a.171.171 0 01-.071-.016h.001a.266.266 0 01-.06-.05l-1.628-2.007v2.072h-.319v-2.665h.198c.022 0 .043.004.063.013zm4.827-.012v.294H48.55v.88h1.095v.282H48.55v.91h1.351v.294h-1.743v-2.659h1.743zM9.95 1.359l16.929 4.55v15.946L9.952 17.308V1.359zM8.865 0v18.081l19.098 5.135V5.136L8.865-.001z"/><path fill="var()" d="M19.1 31.61L0 26.471V8.391l19.1 5.137V31.61z"/><path fill="var()" d="M9.181 1.155l16.707 4.493-7.105 6.728-16.71-4.495L9.18 1.154zM8.865 0L0 8.392l19.1 5.137 8.863-8.392L8.865 0zm11.31 30.593l7.787-7.374-7.787-2.096v9.47z"/></symbol><symbol id="icon-smartphone" viewBox="0 0 21 32"><path fill="var()" d="M18.133 0H3.2C1.436 0 0 1.34 0 2.987v25.89c0 1.647 1.436 2.987 3.2 2.987h14.933c1.764 0 3.2-1.34 3.2-2.987V2.987c0-1.647-1.436-2.987-3.2-2.987zM3.2 1.99h14.933c.589 0 1.067.448 1.067.996v20.911H2.133V2.986c0-.548.478-.996 1.067-.996zm14.933 27.883H3.2c-.589 0-1.067-.448-1.067-.996V25.89H19.2v2.987c0 .548-.478.994-1.067.994z"/><path fill="var()" d="M5.022 27.177a.947.947 0 010 1.407l-.001.001c-.198.182-.464.293-.755.293s-.557-.111-.756-.294l.001.001a.947.947 0 010-1.407l.001-.001c.198-.182.464-.293.755-.293s.557.111.756.294l-.001-.001z"/></symbol><symbol id="icon-twitter-1" viewBox="0 0 32 32"><path fill="var()" d="M32 6.078c-1.1.493-2.376.857-3.713 1.028l-.068.007a6.556 6.556 0 002.873-3.579l.013-.046a12.88 12.88 0 01-4.076 1.573l-.084.014A6.558 6.558 0 0015.6 9.557v.004c0 .52.043 1.021.152 1.496-5.454-.266-10.28-2.88-13.522-6.861a6.524 6.524 0 00-.902 3.313v.001a6.57 6.57 0 002.914 5.451 6.453 6.453 0 01-2.994-.823l.033.017v.072a6.592 6.592 0 005.213 6.44l.043.008a6.403 6.403 0 01-1.662.215h-.061.003c-.419 0-.843-.024-1.242-.112.85 2.598 3.261 4.509 6.13 4.57a13.093 13.093 0 01-8.122 2.8H1.57h.001-.062c-.531 0-1.055-.034-1.569-.099l.061.006c2.826 1.846 6.287 2.944 10.004 2.944h.063-.003c12.072 0 18.672-10 18.672-18.669 0-.288-.01-.57-.024-.848a13.203 13.203 0 003.258-3.355l.03-.047z"/></symbol></defs></svg>